<svg version="1.1" id="Layer_1" xmlns="http://www.w3.org/2000/svg" xmlns:xlink="http://www.w3.org/1999/xlink" x="0px" y="0px"
	 width="100%" viewBox="0 0 800 592" enable-background="new 0 0 800 592" xml:space="preserve">
<path fill="#000000" opacity="1.000000" stroke="none" 
	d="
M433.283295,285.570251 
	C429.200409,287.068604 425.468170,288.453308 421.391876,289.965698 
	C423.991364,290.709839 426.382660,291.394348 429.943268,292.413605 
	C426.063629,293.474579 423.222473,294.251556 418.763977,295.470825 
	C426.975220,300.294769 434.532471,303.611115 440.601807,309.199036 
	C446.651093,314.768524 451.612549,320.990540 454.412445,329.123352 
	C440.961121,311.596527 423.714630,301.538879 401.477661,301.339569 
	C379.282532,301.140594 362.147034,311.237976 348.380157,328.218170 
	C350.908478,320.036743 356.379791,314.271667 362.266113,308.705688 
	C368.059753,303.227356 375.763977,300.667145 382.412964,296.002808 
	C379.382050,293.255554 376.150787,293.814178 372.733093,292.702911 
	C375.394592,291.037018 378.040466,291.163757 381.394531,290.118073 
	C375.410126,287.870636 370.286682,285.946533 365.163239,284.022430 
	C370.461212,282.234039 375.412231,284.977234 381.814026,284.237000 
	C373.726898,277.922180 366.502930,272.281372 359.278961,266.640533 
	C359.487091,266.257965 359.695190,265.875397 359.903320,265.492828 
	C364.420502,266.404449 367.898712,269.975616 372.344360,271.209656 
	C372.973938,269.928009 370.652832,269.057617 371.911224,267.637787 
	C373.960297,267.715118 374.846710,269.528900 376.060638,270.749512 
	C382.635712,277.360931 389.106659,284.075806 395.669556,290.699463 
	C400.106476,295.177399 402.071381,295.169006 406.451111,290.798828 
	C414.100311,283.166412 421.727448,275.511841 429.027863,268.202942 
	C434.970398,272.572266 438.282654,264.677826 444.312714,265.657257 
	C436.079376,272.115326 428.621643,277.964996 420.442322,284.380676 
	C426.557281,284.908722 431.442871,282.702240 436.923279,282.870331 
	C436.424103,284.924713 434.893341,285.026184 433.283295,285.570251 
z"/>
<path fill="#000000" opacity="1.000000" stroke="none" 
	d="
M389.153809,360.072632 
	C387.116669,363.633972 386.159027,367.427460 382.981201,370.807098 
	C377.329315,362.911255 374.718353,354.040680 369.085938,345.396576 
	C368.032318,353.138519 367.060120,359.656219 366.290588,366.197754 
	C365.900208,369.516266 364.797791,371.204956 360.848907,369.387451 
	C362.691620,356.852051 364.525085,344.379578 366.358521,331.907104 
	C366.918701,331.831055 367.478882,331.755005 368.039062,331.678955 
	C372.788513,341.101715 377.537933,350.524445 383.046204,361.452728 
	C388.404633,350.711670 393.143311,341.212982 397.881958,331.714294 
	C398.433594,331.747864 398.985199,331.781433 399.536835,331.815033 
	C401.413605,344.384155 403.290405,356.953278 405.193787,369.700562 
	C401.498108,371.024170 400.073883,369.773376 399.667145,366.294403 
	C398.901550,359.746185 397.879181,353.227966 395.971680,346.527130 
	C393.752411,350.930115 391.533142,355.333130 389.153809,360.072632 
z"/>
<path fill="#000000" opacity="1.000000" stroke="none" 
	d="
M447.956787,365.994385 
	C438.222351,374.045197 425.783508,373.182800 417.837524,364.169250 
	C410.883026,356.280365 411.662842,343.224304 419.537262,335.711792 
	C427.272552,328.332031 440.859558,328.528625 448.565308,336.131836 
	C456.514709,343.975525 456.367126,356.900391 447.956787,365.994385 
M449.300964,349.010193 
	C449.068726,348.042511 448.891449,347.057709 448.595367,346.109955 
	C446.658966,339.911255 442.140778,336.509125 436.030243,335.426453 
	C429.715027,334.307526 424.520416,336.817780 420.980591,342.047272 
	C417.328918,347.441986 417.132050,353.255981 420.473175,358.944763 
	C423.915741,364.806244 430.950165,367.839935 437.065521,366.294159 
	C444.814087,364.335632 448.644165,359.235687 449.300964,349.010193 
z"/>
<path fill="#000000" opacity="1.000000" stroke="none" 
	d="
M506.726624,347.003540 
	C506.727142,343.180481 506.922455,339.842102 506.679474,336.535919 
	C506.381470,332.480682 507.828949,330.651794 512.049805,331.048615 
	C516.179260,331.436890 520.354797,331.355957 524.477600,331.789795 
	C533.989380,332.790710 540.651489,341.476868 540.267517,352.132416 
	C539.882690,362.812012 533.036560,370.063354 523.009399,370.320068 
	C519.022888,370.422119 515.028564,370.259430 511.044617,370.404205 
	C507.811005,370.521698 506.621674,369.109100 506.688110,365.950409 
	C506.817413,359.803558 506.726685,353.652069 506.726624,347.003540 
M520.170654,336.338593 
	C519.340271,336.322021 518.493469,336.405792 517.682251,336.272491 
	C512.897156,335.486206 511.124023,337.501221 511.362823,342.278442 
	C511.661041,348.243927 511.754120,354.249542 511.409576,360.207397 
	C511.152161,364.658295 512.704773,366.350403 517.052917,365.747955 
	C518.358704,365.567047 519.709473,365.740906 521.035156,365.669434 
	C530.015198,365.185608 535.083984,359.793793 534.943542,350.903687 
	C534.809570,342.421356 530.892578,338.332153 520.170654,336.338593 
z"/>
<path fill="#000000" opacity="1.000000" stroke="none" 
	d="
M469.763611,335.300598 
	C476.477570,343.064423 482.956055,350.568146 489.434540,358.071838 
	C489.846222,357.905823 490.257935,357.739807 490.669617,357.573792 
	C490.669617,350.987976 490.665619,344.402191 490.673004,337.816376 
	C490.674500,336.483948 490.697021,335.150665 490.749725,333.819366 
	C490.812866,332.222473 491.632111,331.324280 493.271606,331.429230 
	C494.733551,331.522827 495.239105,332.583069 495.241455,333.851135 
	C495.263672,345.813995 495.254639,357.776978 495.254639,369.739899 
	C494.809753,370.029755 494.364838,370.319641 493.919952,370.609497 
	C486.131378,361.809357 478.342804,353.009247 470.554199,344.209106 
	C470.139618,344.276855 469.725037,344.344604 469.310455,344.412323 
	C469.310455,350.906677 469.512207,357.410858 469.196625,363.889832 
	C469.091888,366.039948 471.377777,370.086884 466.882843,370.100250 
	C462.773560,370.112427 464.174988,366.219543 464.134857,363.855713 
	C463.984955,355.027222 464.050629,346.194702 464.081512,337.363831 
	C464.088287,335.430420 463.743561,333.373138 465.186340,331.722412 
	C467.457825,331.952179 468.221191,333.845062 469.763611,335.300598 
z"/>
<path fill="#000000" opacity="1.000000" stroke="none" 
	d="
M280.439117,331.909058 
	C295.824432,335.167267 298.495850,353.749023 291.759583,363.301453 
	C288.735474,367.589813 284.705322,369.868134 279.674408,370.211151 
	C275.041077,370.527039 270.371490,370.276489 265.719696,370.368347 
	C263.030884,370.421448 261.753143,369.305176 261.764374,366.545319 
	C261.807007,356.075165 261.841797,345.604126 261.740387,335.134766 
	C261.709595,331.954254 263.410278,331.028748 266.093536,331.127502 
	C270.737885,331.298370 275.378052,331.584412 280.439117,331.909058 
M266.397888,351.494080 
	C266.404846,354.644714 266.585907,357.807159 266.373993,360.942993 
	C266.118256,364.727478 267.809113,366.053070 271.379883,365.733612 
	C273.191345,365.571594 275.042938,365.814545 276.845703,365.607483 
	C282.684723,364.936798 287.441620,362.457886 289.381500,356.560120 
	C292.835785,346.058258 286.528473,337.099579 275.365875,336.340607 
	C266.459076,335.734985 266.403839,335.785126 266.397034,344.536316 
	C266.395477,346.526215 266.396820,348.516083 266.397888,351.494080 
z"/>
<path fill="#000000" opacity="1.000000" stroke="none" 
	d="
M414.821350,255.410767 
	C404.934296,255.298660 395.453308,255.262070 385.976868,255.035370 
	C382.861298,254.960815 380.653534,256.421600 378.394958,258.228333 
	C376.033600,260.117310 373.476562,261.761688 370.426117,263.261993 
	C377.386658,256.117340 367.978577,253.190521 366.998779,248.300522 
	C368.737396,246.929794 369.494965,248.459656 370.388245,249.218399 
	C376.607971,254.501419 376.598145,254.512985 384.411377,250.614578 
	C385.054840,249.014481 383.888733,247.770325 383.523560,246.367767 
	C383.163422,244.984634 381.721008,243.925049 382.388397,241.849731 
	C385.326019,242.640778 386.021240,245.459808 387.422241,247.409180 
	C389.521271,250.329758 391.841949,252.574326 395.685577,251.457214 
	C399.390564,250.380341 398.290283,247.013214 398.746735,244.350449 
	C399.614960,239.285767 399.086761,233.952820 401.939362,229.151306 
	C402.573273,235.022446 403.098816,240.908569 403.906311,246.755737 
	C404.152435,248.537872 403.759735,251.082108 406.550690,251.515915 
	C409.298859,251.943085 411.750763,251.586639 413.673401,249.103943 
	C415.630920,246.576172 416.959290,243.472916 420.086670,241.257919 
	C420.748657,245.117523 417.251038,247.327591 417.713531,251.014069 
	C421.322205,250.466202 422.948853,256.393188 426.992065,254.088257 
	C429.920349,252.418900 432.217804,249.642990 435.278778,246.933777 
	C436.098145,250.142456 434.104828,251.457581 432.924347,252.944626 
	C430.308655,256.239563 428.032257,259.419250 433.558746,263.671692 
	C428.308258,263.123749 426.080719,260.064667 423.402740,257.996979 
	C420.892883,256.059143 418.472717,254.655029 414.821350,255.410767 
z"/>
<path fill="#000000" opacity="1.000000" stroke="none" 
	d="
M317.861877,366.918457 
	C323.453217,355.199310 328.890320,343.811340 334.368896,332.443390 
	C334.548035,332.071747 335.149536,331.903717 336.440796,331.064484 
	C342.489868,343.884857 348.450317,356.517365 354.519012,369.379303 
	C350.789703,371.338928 349.027649,369.850616 347.661133,366.886658 
	C343.988892,358.921478 340.221344,351.000275 336.262299,342.573456 
	C333.713165,344.529999 333.129578,347.006622 332.098114,349.116089 
	C329.033997,355.382904 326.046204,361.688538 323.135681,368.028137 
	C322.209259,370.045990 320.842804,370.686401 318.766724,370.280975 
	C316.628510,369.863403 317.311676,368.522583 317.861877,366.918457 
z"/>
<path fill="#000000" opacity="1.000000" stroke="none" 
	d="
M309.277039,364.839569 
	C308.976288,367.250916 310.109070,370.218140 306.674133,370.127350 
	C303.492676,370.043243 304.032684,367.219604 304.020782,365.192352 
	C303.964294,355.579651 303.977051,345.965912 304.067535,336.353485 
	C304.086670,334.323029 303.626404,331.430969 306.814941,331.509857 
	C310.100677,331.591187 309.216278,334.564270 309.235901,336.515137 
	C309.329346,345.795868 309.277740,355.078094 309.277039,364.839569 
z"/>
<path fill="#000000" opacity="1.000000" stroke="none" 
	d="
M378.802734,386.443665 
	C380.298065,388.678955 380.722900,386.934326 381.271545,386.078949 
	C382.476105,384.200836 382.660828,381.635468 385.693726,380.094025 
	C386.243774,384.416107 387.586639,388.270782 386.941620,392.640350 
	C383.811157,391.719788 385.415527,388.955292 384.104004,387.546387 
	C381.976471,388.674194 382.296539,391.861908 379.866821,392.623688 
	C377.551819,391.992004 378.092957,389.048035 376.031738,388.188538 
	C374.924835,389.567261 375.366638,391.820374 373.094543,392.981354 
	C371.710175,388.596649 373.290863,384.680206 374.184052,380.449799 
	C377.253418,381.389038 377.254333,384.342651 378.802734,386.443665 
z"/>
<path fill="#000000" opacity="1.000000" stroke="none" 
	d="
M322.150024,392.549500 
	C319.027740,393.542267 316.206451,394.081146 313.788849,392.055023 
	C310.729675,389.491211 310.108490,386.255798 312.072266,382.747681 
	C313.890259,379.500031 318.701599,378.313171 322.082855,380.198456 
	C325.860199,382.304535 325.829956,385.757904 324.878113,389.264069 
	C324.565887,390.414124 323.327362,391.312714 322.150024,392.549500 
M316.650299,382.414124 
	C314.683350,384.013855 312.520569,385.603363 314.400604,388.541992 
	C315.705078,390.580994 317.688812,391.363190 319.998749,390.524139 
	C322.159241,389.739410 323.081543,387.920715 322.601227,385.748260 
	C321.994324,383.003357 320.380035,381.332031 316.650299,382.414124 
z"/>
<path fill="#000000" opacity="1.000000" stroke="none" 
	d="
M484.386841,390.605652 
	C482.091675,386.022095 482.806793,382.269928 487.065704,380.125092 
	C490.423004,378.434265 493.926361,378.649445 496.967590,382.926880 
	C492.455658,383.282806 486.383545,379.501587 486.432922,386.711853 
	C486.476715,393.099060 492.173035,389.953094 495.765656,390.231079 
	C493.177429,394.420502 489.171875,394.554291 484.386841,390.605652 
z"/>
<path fill="#000000" opacity="1.000000" stroke="none" 
	d="
M290.171570,389.981232 
	C289.752472,393.103882 286.491577,394.409821 282.712402,393.053680 
	C279.469788,391.890106 278.190002,389.299713 278.255127,386.054321 
	C278.317657,382.937653 279.846802,380.727814 282.927216,379.784790 
	C286.441589,378.708893 288.717163,379.473541 290.800415,382.395203 
	C289.754120,383.638702 288.657684,382.803925 287.684387,382.354828 
	C285.311401,381.259857 283.531311,382.083679 281.992249,383.889679 
	C280.645844,385.469635 280.456818,387.150909 281.721375,388.863220 
	C283.188965,390.850433 285.158752,391.277435 287.451630,390.594299 
	C288.240631,390.359222 289.034760,390.141388 290.171570,389.981232 
z"/>
<path fill="#000000" opacity="1.000000" stroke="none" 
	d="
M522.958496,387.324158 
	C524.047974,389.895996 524.010071,392.100281 521.407227,392.983429 
	C519.197876,393.733002 516.777893,393.788666 515.860901,390.791351 
	C517.098328,388.834106 519.228577,391.768066 520.457703,389.378418 
	C520.135620,386.329468 513.139343,384.711731 517.591492,380.279633 
	C519.210083,378.668365 521.616760,378.942474 523.330200,381.575317 
	C521.221924,383.118530 519.769165,384.954254 522.958496,387.324158 
z"/>
<path fill="#000000" opacity="1.000000" stroke="none" 
	d="
M407.752991,391.754272 
	C407.654663,387.746460 407.654663,384.132111 407.654663,380.370514 
	C410.350800,379.307098 412.758789,379.197601 415.255981,380.318604 
	C414.748688,383.076813 411.786926,381.381012 410.845551,383.387054 
	C411.156403,385.845642 414.792358,383.559692 415.172943,386.050873 
	C414.557556,388.429382 410.543365,386.236053 410.598633,389.457092 
	C411.272583,391.673859 414.172882,389.972443 415.156830,392.334229 
	C412.656525,393.753021 410.288269,394.174988 407.752991,391.754272 
z"/>
<path fill="#000000" opacity="1.000000" stroke="none" 
	d="
M351.567902,382.254425 
	C349.113129,384.127289 350.570465,385.447998 351.552277,387.025665 
	C352.792542,389.018677 352.973480,391.368134 350.715118,392.667419 
	C348.602264,393.882904 346.266541,393.884613 345.042725,391.098389 
	C345.842316,388.867188 347.930145,391.315674 349.016205,389.630402 
	C349.501404,387.550232 347.212646,386.980042 346.263580,385.623108 
	C344.858032,383.613403 344.203979,381.490723 346.597168,380.097290 
	C348.626556,378.915710 351.085480,378.547302 351.567902,382.254425 
z"/>
<path fill="#000000" opacity="1.000000" stroke="none" 
	d="
M437.224243,379.618591 
	C439.052795,379.677643 440.577759,379.343719 442.310699,380.635925 
	C437.535553,383.556610 440.488495,388.758148 438.627930,392.639099 
	C436.317474,392.060211 436.892120,390.310455 436.759521,388.960815 
	C436.507935,386.400513 437.124664,383.824341 435.101135,381.453766 
	C433.779419,379.905334 435.835144,379.886230 437.224243,379.618591 
z"/>
<path fill="#000000" opacity="1.000000" stroke="none" 
	d="
M463.431274,382.658203 
	C463.121246,386.213104 464.050079,389.527344 462.297363,394.000916 
	C460.045471,388.548004 460.662354,384.363312 461.431122,380.114685 
	C463.625549,380.180664 463.202698,381.437622 463.431274,382.658203 
z"/>
</svg>